<svg width="131" height="32" viewBox="0 0 131 32" fill="none" xmlns="http://www.w3.org/2000/svg">
<path d="M15.7929 4.59521V4.59626C15.776 4.62534 12.2955 10.6292 7.95067 17.9595C3.59532 25.3077 0 31.1906 0 31.1906L12.3315 31.1365L12.3323 31.1364L12.3297 31.1459C18.3172 31.03 23.7182 27.0934 25.3119 21.1453C25.8102 19.286 25.8853 17.4143 25.5964 15.6255C24.8043 10.3582 20.9149 6.07448 15.7929 4.59521Z" fill="black"/>
<path d="M22.6078 0.809326V0.81037C22.591 0.839449 19.1104 6.8433 14.7656 14.1736C10.4103 21.5218 6.81494 27.4047 6.81494 27.4047L19.1464 27.3506L19.1472 27.3505L19.1446 27.36C25.1321 27.2441 30.5331 23.3075 32.1269 17.3594C32.6251 15.5001 32.7003 13.6284 32.4113 11.8396C31.6192 6.57236 27.7299 2.28859 22.6078 0.809326Z" fill="#10F2C5"/>
<path d="M48.6481 25H42.1855V6.76965H48.7015C50.5352 6.76965 52.1137 7.13461 53.4371 7.86454C54.7605 8.58853 55.7782 9.63001 56.4903 10.989C57.2084 12.3479 57.5674 13.974 57.5674 15.867C57.5674 17.766 57.2084 19.398 56.4903 20.7629C55.7782 22.1278 54.7545 23.1752 53.4193 23.9051C52.09 24.635 50.4996 25 48.6481 25ZM46.0399 21.6975H48.4878C49.6272 21.6975 50.5856 21.4958 51.363 21.0922C52.1464 20.6828 52.7339 20.0507 53.1255 19.1962C53.5231 18.3357 53.7219 17.226 53.7219 15.867C53.7219 14.5199 53.5231 13.4191 53.1255 12.5645C52.7339 11.71 52.1493 11.081 51.3719 10.6774C50.5945 10.2739 49.6361 10.0721 48.4967 10.0721H46.0399V21.6975ZM65.3896 25.2225C64.3511 25.2225 63.4105 24.9555 62.5678 24.4214C61.7311 23.8814 61.0665 23.0891 60.5739 22.0447C60.0873 20.9943 59.844 19.7066 59.844 18.1814C59.844 16.6147 60.0962 15.3122 60.6006 14.2736C61.105 13.2292 61.7756 12.4488 62.6124 11.9325C63.455 11.4103 64.3778 11.1492 65.3807 11.1492C66.1463 11.1492 66.7842 11.2798 67.2946 11.5409C67.8109 11.796 68.2263 12.1165 68.5408 12.5022C68.8612 12.882 69.1045 13.2559 69.2707 13.6238H69.3864V6.76965H73.1696V25H69.4309V22.8102H69.2707C69.0927 23.19 68.8405 23.5669 68.5141 23.9407C68.1936 24.3086 67.7753 24.6143 67.259 24.8576C66.7486 25.1009 66.1255 25.2225 65.3896 25.2225ZM66.5913 22.2049C67.2026 22.2049 67.7189 22.0388 68.1402 21.7064C68.5675 21.3682 68.8939 20.8964 69.1194 20.2911C69.3508 19.6858 69.4665 18.9766 69.4665 18.1636C69.4665 17.3506 69.3538 16.6444 69.1283 16.0451C68.9028 15.4457 68.5764 14.9828 68.1491 14.6564C67.7218 14.33 67.2026 14.1668 66.5913 14.1668C65.9682 14.1668 65.443 14.336 65.0158 14.6742C64.5885 15.0125 64.2651 15.4813 64.0455 16.0807C63.8259 16.68 63.7161 17.3743 63.7161 18.1636C63.7161 18.9588 63.8259 19.662 64.0455 20.2733C64.271 20.8786 64.5944 21.3533 65.0158 21.6975C65.443 22.0358 65.9682 22.2049 66.5913 22.2049ZM87.6635 15.2261L84.1919 15.4397C84.1326 15.143 84.005 14.876 83.8091 14.6386C83.6133 14.3953 83.3552 14.2024 83.0347 14.06C82.7202 13.9116 82.3434 13.8375 81.9042 13.8375C81.3167 13.8375 80.8212 13.9621 80.4177 14.2113C80.0141 14.4546 79.8124 14.781 79.8124 15.1905C79.8124 15.5169 79.9429 15.7928 80.204 16.0183C80.4651 16.2439 80.9132 16.4248 81.5482 16.5613L84.0228 17.0598C85.3521 17.3328 86.3431 17.7719 86.9959 18.3773C87.6487 18.9826 87.9751 19.7778 87.9751 20.7629C87.9751 21.659 87.711 22.4453 87.1828 23.1218C86.6606 23.7983 85.9426 24.3265 85.0287 24.7062C84.1207 25.0801 83.0733 25.267 81.8864 25.267C80.0764 25.267 78.6344 24.8902 77.5603 24.1366C76.4921 23.377 75.866 22.3444 75.682 21.0388L79.4118 20.843C79.5245 21.3949 79.7975 21.8162 80.2307 22.107C80.6639 22.3918 81.2188 22.5343 81.8953 22.5343C82.56 22.5343 83.0941 22.4067 83.4976 22.1515C83.9071 21.8904 84.1148 21.5551 84.1207 21.1456C84.1148 20.8014 83.9694 20.5196 83.6845 20.3C83.3997 20.0745 82.9605 19.9024 82.3671 19.7837L79.9993 19.3119C78.6641 19.0449 77.6701 18.582 77.0173 17.9233C76.3704 17.2646 76.047 16.4248 76.047 15.4041C76.047 14.5259 76.2844 13.7692 76.7591 13.1342C77.2398 12.4993 77.9134 12.0097 78.7798 11.6655C79.6521 11.3213 80.6728 11.1492 81.8419 11.1492C83.5688 11.1492 84.9278 11.5142 85.9188 12.2441C86.9158 12.974 87.4974 13.968 87.6635 15.2261ZM96.5228 30.4121C95.2944 30.4121 94.241 30.243 93.3627 29.9047C92.4904 29.5724 91.7961 29.1184 91.2798 28.5428C90.7635 27.9672 90.4282 27.3203 90.2739 26.6023L93.7811 26.1305C93.8879 26.4035 94.057 26.6587 94.2885 26.896C94.5199 27.1334 94.8255 27.3233 95.2053 27.4657C95.5911 27.6141 96.0599 27.6883 96.6118 27.6883C97.4367 27.6883 98.1162 27.4865 98.6502 27.083C99.1903 26.6854 99.4603 26.0177 99.4603 25.0801V22.5788H99.3001C99.1339 22.9586 98.8847 23.3176 98.5523 23.6559C98.22 23.9941 97.7927 24.2701 97.2705 24.4837C96.7483 24.6973 96.1252 24.8042 95.4012 24.8042C94.3745 24.8042 93.4399 24.5668 92.5972 24.092C91.7605 23.6114 91.0928 22.8785 90.5943 21.8934C90.1018 20.9023 89.8555 19.6502 89.8555 18.1369C89.8555 16.588 90.1077 15.2944 90.6122 14.2558C91.1166 13.2173 91.7872 12.4399 92.6239 11.9236C93.4666 11.4073 94.3894 11.1492 95.3923 11.1492C96.1578 11.1492 96.7987 11.2798 97.315 11.5409C97.8313 11.796 98.2467 12.1165 98.5612 12.5022C98.8817 12.882 99.128 13.2559 99.3001 13.6238H99.4425V11.3272H103.208V25.1335C103.208 26.2967 102.923 27.2699 102.353 28.0532C101.784 28.8366 100.994 29.4241 99.9855 29.8157C98.9826 30.2133 97.8283 30.4121 96.5228 30.4121ZM96.6029 21.9557C97.2141 21.9557 97.7304 21.8043 98.1518 21.5017C98.579 21.1931 98.9054 20.754 99.1309 20.1843C99.3624 19.6086 99.4781 18.9202 99.4781 18.1191C99.4781 17.318 99.3653 16.6237 99.1398 16.0361C98.9143 15.4427 98.5879 14.9828 98.1607 14.6564C97.7334 14.33 97.2141 14.1668 96.6029 14.1668C95.9798 14.1668 95.4546 14.336 95.0273 14.6742C94.6 15.0065 94.2766 15.4694 94.057 16.0629C93.8375 16.6563 93.7277 17.3417 93.7277 18.1191C93.7277 18.9084 93.8375 19.5908 94.057 20.1665C94.2826 20.7362 94.606 21.1783 95.0273 21.4928C95.4546 21.8014 95.9798 21.9557 96.6029 21.9557ZM110.018 17.0954V25H106.225V11.3272H109.839V13.7396H110C110.302 12.9443 110.81 12.3153 111.522 11.8524C112.234 11.3836 113.097 11.1492 114.112 11.1492C115.062 11.1492 115.89 11.3569 116.596 11.7723C117.302 12.1877 117.851 12.7812 118.243 13.5526C118.634 14.3182 118.83 15.232 118.83 16.2943V25H115.038V16.9708C115.044 16.1341 114.83 15.4813 114.397 15.0125C113.964 14.5377 113.367 14.3003 112.608 14.3003C112.097 14.3003 111.646 14.4101 111.255 14.6297C110.869 14.8493 110.566 15.1697 110.347 15.5911C110.133 16.0065 110.023 16.5079 110.018 17.0954ZM121.819 25V11.3272H125.495V13.7128H125.637C125.887 12.8642 126.305 12.2233 126.893 11.7901C127.48 11.351 128.157 11.1314 128.922 11.1314C129.112 11.1314 129.317 11.1433 129.536 11.167C129.756 11.1907 129.949 11.2234 130.115 11.2649V14.6297C129.937 14.5763 129.691 14.5288 129.376 14.4873C129.062 14.4457 128.774 14.425 128.513 14.425C127.955 14.425 127.456 14.5466 127.017 14.7899C126.584 15.0273 126.24 15.3596 125.985 15.7869C125.735 16.2142 125.611 16.7067 125.611 17.2646V25H121.819Z" fill="black"/>
</svg>
